<?xml version="1.0" encoding="utf-8"?>
<!-- Generator: Adobe Illustrator 21.1.0, SVG Export Plug-In . SVG Version: 6.00 Build 0)  -->
<svg version="1.1" id="XMLID_2_" xmlns="http://www.w3.org/2000/svg" xmlns:xlink="http://www.w3.org/1999/xlink" x="0px" y="0px"
	 viewBox="0 0 12 12" enable-background="new 0 0 12 12" xml:space="preserve">
<g id="close">
	<path fill="#999999" d="M7.4142,6l4.2926-4.2929c0.3909-0.3906,0.3909-1.0237,0-1.4141c-0.3908-0.3906-1.0226-0.3906-1.4143,0
		L5.9998,4.586L1.7065,0.293c-0.3909-0.3906-1.0226-0.3906-1.4134,0c-0.3909,0.3904-0.3909,1.0235,0,1.4141L4.5858,6l-4.2926,4.2928
		c-0.3909,0.3906-0.3909,1.0235,0,1.4142C0.4882,11.9022,0.7438,12,1.0001,12c0.2557,0,0.5113-0.0978,0.7064-0.293l4.2933-4.2931
		l4.2927,4.2931C10.4886,11.9022,10.7442,12,10.9999,12c0.256,0,0.5118-0.0978,0.7069-0.293c0.3909-0.3907,0.3909-1.0236,0-1.4142
		L7.4142,6z"/>
</g>
</svg>
