<?xml version="1.0" encoding="utf-8"?>
<!-- Generator: Adobe Illustrator 21.1.0, SVG Export Plug-In . SVG Version: 6.00 Build 0)  -->
<svg version="1.1" id="XMLID_2_" xmlns="http://www.w3.org/2000/svg" xmlns:xlink="http://www.w3.org/1999/xlink" x="0px" y="0px"
	 viewBox="0 0 48.66 62.1875" enable-background="new 0 0 48.66 62.1875" xml:space="preserve">
<g id="master">
	<path fill="#EFD8C8" d="M30.95,45.6675l-1.22-4.87c2.87-1.37,6.1-4.12,7.6-9.61c0,0,4-1,4-5c0-2.98-2-4-2-4s1.97-4.31,0.75-9.31
		c-1.36-5.57-7.32-11.88-15.75-11.88s-14.39,6.31-15.75,11.88c-1.22,5,0.75,9.31,0.75,9.31s-2,1.02-2,4c0,4,4,5,4,5
		c1.5,5.49,4.73,8.24,7.6,9.61l-1.22,4.86c-6.02,0.8701-11.68,2.91-16.71,5.88c5.98,5.96,14.21,9.65,23.33,9.65
		s17.35-3.69,23.33-9.65C42.63,48.5675,36.98,46.5275,30.95,45.6675z"/>
	<g>
		<path fill="none" stroke="#E38044" stroke-width="2" stroke-linecap="round" stroke-linejoin="round" stroke-miterlimit="10" d="
			M1,51.5375c6.84-4.04,14.82-6.35,23.33-6.35c2.25,0,4.46,0.16,6.62,0.48c6.03,0.86,11.68,2.9,16.71,5.87
			c-5.98,5.96-14.21,9.65-23.33,9.65S6.98,57.4975,1,51.5375z"/>
		
			<line fill="none" stroke="#E38044" stroke-width="2" stroke-linecap="round" stroke-linejoin="round" stroke-miterlimit="10" x1="30.95" y1="45.6675" x2="29.73" y2="40.7975"/>
		
			<line fill="none" stroke="#E38044" stroke-width="2" stroke-linecap="round" stroke-linejoin="round" stroke-miterlimit="10" x1="18.93" y1="40.7975" x2="17.71" y2="45.6675"/>
		<path fill="none" stroke="#E38044" stroke-width="2" stroke-linecap="round" stroke-linejoin="round" stroke-miterlimit="10" d="
			M24.33,1C15.9023,1,9.9424,7.3109,8.58,12.875c-1.2241,4.9993,0.75,9.3125,0.75,9.3125s-2,1.0208-2,4c0,4,4,5,4,5
			c3,11,13,11,13,11s10,0,13-11c0,0,4-1,4-5c0-2.9792-2-4-2-4s1.9741-4.3132,0.75-9.3125C38.7176,7.3109,32.7577,1,24.33,1z"/>
		<path fill="none" stroke="#E38044" stroke-width="2" stroke-linecap="round" stroke-linejoin="round" stroke-miterlimit="10" d="
			M9.33,22.1875l2,4c0,0,1-7,6-11c0,0,5,6,12,7c0,0-3-5-2-8c0,0,4,7,12,8"/>
	</g>
</g>
</svg>
