<?xml version="1.0" encoding="utf-8"?>
<!-- Generator: Adobe Illustrator 21.1.0, SVG Export Plug-In . SVG Version: 6.00 Build 0)  -->
<svg version="1.1" id="XMLID_2_" xmlns="http://www.w3.org/2000/svg" xmlns:xlink="http://www.w3.org/1999/xlink" x="0px" y="0px"
	 viewBox="0 0 11 9" enable-background="new 0 0 11 9" xml:space="preserve">
<path id="metro" fill="#3156A0" d="M3.9073,8.9997c-0.7596,0-1.5093,0.0019-2.259-0.0039c-0.0574-0.0004-0.1248-0.0444-0.17-0.0871
	c-0.519-0.4899-0.8575-1.0967-1.1059-1.7598c-0.2991-0.7985-0.4246-1.6263-0.3525-2.475c0.0798-0.9401,0.4024-1.8022,0.9103-2.5926
	C1.3782,1.3839,1.9373,0.799,2.661,0.3873c0.29-0.165,0.5965-0.289,0.9533-0.363C4.235,2.1268,4.8557,4.2294,5.4876,6.3699
	C6.1381,4.2328,6.7775,2.1318,7.4264,0c0.2693,0.1175,0.5261,0.203,0.7571,0.3346c1.43,0.8144,2.3194,2.0444,2.6991,3.6477
	c0.2434,1.0274,0.0826,2.0287-0.2482,3.0108c-0.1881,0.5585-0.4274,1.0928-0.777,1.5708C9.8442,8.5821,9.8302,8.5998,9.8173,8.6183
	c-0.1838,0.2641-0.408,0.4003-0.7555,0.3795C8.4633,8.9979,7.2844,9,7.2015,9c0.2529-0.1854,0.478-0.3507,0.6913-0.5197
	c0.8087-0.6409,1.461-1.4076,1.8009-2.4015c0.4577-1.3381,0.3165-2.6158-0.4409-3.814C9.0678,1.9722,8.8339,1.7211,8.53,1.5481
	c-0.21-0.1195-0.4342-0.1887-0.6651-0.0693c-0.0703,0.0363-0.143,0.1151-0.1663,0.1898C6.9705,4.0015,6.2485,6.3363,5.5253,8.6707
	c-0.009,0.0291-0.021,0.0572-0.0406,0.1098C5.3718,8.4231,5.2654,8.0888,5.1604,7.754C4.5345,5.7578,3.9091,3.7614,3.2831,1.7653
	C3.1964,1.4889,2.9057,1.3448,2.6215,1.4781c-0.1981,0.093-0.3928,0.2267-0.5417,0.387C1.5511,2.4342,1.2757,3.1343,1.161,3.8935
	c-0.2787,1.8443,0.416,3.2955,1.818,4.4423C3.2694,8.5735,3.5897,8.7741,3.9073,8.9997z"/>
</svg>
