<?xml version="1.0" encoding="utf-8"?>
<!-- Generator: Adobe Illustrator 21.1.0, SVG Export Plug-In . SVG Version: 6.00 Build 0)  -->
<svg version="1.1" id="XMLID_1_" xmlns="http://www.w3.org/2000/svg" xmlns:xlink="http://www.w3.org/1999/xlink" x="0px" y="0px"
	 viewBox="0 0 42.5091 54" enable-background="new 0 0 42.5091 54" xml:space="preserve">
<g id="service">
	<path fill="#EFD8C8" d="M39.5481,37.39c-1.31-1.1-2.99-1.48-4.54-1.19l-8.14-6.83V8c0-1.94-0.78-3.68-2.05-4.95
		c-1.27-1.27-3.01-2.05-4.95-2.05v22.5L2.6382,9.04c-1.25,1.48-1.77,3.32-1.61,5.1c0.15,1.79,0.9901,3.51,2.47,4.76l16.37,13.73
		v10.63c-1.22,1-2,2.53-2,4.24c0,3.04,2.46,5.5,5.5,5.5s5.5-2.46,5.5-5.5c0-1.71-0.78-3.24-2-4.24v-4.75l3.64,3.05
		c-0.02,1.58,0.65,3.16,1.96,4.26c2.33,1.95,5.8,1.65,7.75-0.68C42.1782,42.81,41.8682,39.35,39.5481,37.39z M23.3682,50
		c-1.3807,0-2.5-1.1193-2.5-2.5s1.1193-2.5,2.5-2.5s2.5,1.1193,2.5,2.5S24.7489,50,23.3682,50z M37.923,43.213
		c-0.8875,1.0577-2.4644,1.1957-3.5221,0.3082s-1.1957-2.4644-0.3082-3.5221s2.4644-1.1956,3.5221-0.3082
		C38.6725,40.5784,38.8105,42.1553,37.923,43.213z"/>
	<g>
		<path fill="none" stroke="#E38044" stroke-width="2" stroke-linecap="round" stroke-linejoin="round" stroke-miterlimit="10" d="
			M19.8682,32.63L3.4982,18.9c-1.48-1.25-2.32-2.97-2.47-4.76c-0.16-1.78,0.36-3.62,1.61-5.1l17.23,14.46"/>
		<path fill="none" stroke="#E38044" stroke-width="2" stroke-linecap="round" stroke-linejoin="round" stroke-miterlimit="10" d="
			M26.8682,29.37l8.14,6.83c1.55-0.29,3.23,0.09,4.54,1.19c2.32,1.96,2.63,5.42,0.67,7.75c-1.95,2.33-5.42,2.63-7.75,0.68
			c-1.31-1.1-1.98-2.68-1.96-4.26l-3.64-3.05"/>
		
			<ellipse transform="matrix(0.6428 -0.766 0.766 0.6428 -19.0096 42.4458)" fill="none" stroke="#E38044" stroke-width="2" stroke-linecap="round" stroke-linejoin="round" stroke-miterlimit="10" cx="36.0079" cy="41.606" rx="2.5" ry="2.5"/>
		<path fill="none" stroke="#E38044" stroke-width="2" stroke-linecap="round" stroke-linejoin="round" stroke-miterlimit="10" d="
			M19.8682,43.26c-1.22,1-2,2.53-2,4.24c0,3.04,2.46,5.5,5.5,5.5s5.5-2.46,5.5-5.5c0-1.71-0.78-3.24-2-4.24V8
			c0-1.94-0.78-3.68-2.05-4.95c-1.27-1.27-3.01-2.05-4.95-2.05V43.26z"/>
		<circle fill="#E38044" cx="23.3682" cy="31" r="1.5"/>
		
			<circle fill="none" stroke="#E38044" stroke-width="2" stroke-linecap="round" stroke-linejoin="round" stroke-miterlimit="10" cx="23.3682" cy="47.5" r="2.5"/>
	</g>
</g>
</svg>
