<?xml version="1.0" encoding="utf-8"?>
<!-- Generator: Adobe Illustrator 21.1.0, SVG Export Plug-In . SVG Version: 6.00 Build 0)  -->
<svg version="1.1" id="XMLID_2_" xmlns="http://www.w3.org/2000/svg" xmlns:xlink="http://www.w3.org/1999/xlink" x="0px" y="0px"
	 viewBox="0 0 26.0028 28.0028" enable-background="new 0 0 26.0028 28.0028" xml:space="preserve">
<path id="shield_1_" fill="none" stroke="#D5D5D5" stroke-width="2.0028" stroke-miterlimit="10" d="M13.0012,27.0014
	c-0.0046,0-0.0096,0-0.0142-0.0003c-0.2257-0.0058-0.4238-0.1468-0.5038-0.355l-0.0232-0.052
	c-0.0041-0.0095-0.0081-0.0191-0.0119-0.0292c-0.3682-0.979-2.4176-1.2916-4.5876-1.6227
	c-0.6733-0.1028-1.3698-0.2092-2.0766-0.3412c-1.7-0.3175-3.2282-1.6178-4.0878-3.4779c-1.0606-2.2952-0.9007-4.942,0.4383-7.2615
	c0.6487-1.1235,0.972-2.3264,0.9604-3.5759C2.8744,8.0618,1.666,5.8665,1.6538,5.8449c-0.1191-0.2141-0.0829-0.481,0.0895-0.6558
	l3.7471-3.8047c0.179-0.1817,0.4595-0.2181,0.6791-0.0881c3.1903,1.8908,6.267-0.0335,6.5107-0.1924
	c0.0646-0.0459,0.1396-0.078,0.2193-0.0927c0.1478-0.0283,0.299,0.0058,0.4218,0.0919c0.1307,0.091,3.259,2.225,6.5124,0.2981
	c0.2193-0.13,0.5-0.0936,0.6791,0.0881l3.7471,3.8047c0.1721,0.1745,0.2083,0.4414,0.0895,0.6555
	c-0.0119,0.0217-1.1962,2.1779-1.4404,4.3437c-0.0301,1.2835,0.2926,2.5194,0.9592,3.6735l0,0
	c1.339,2.3192,1.499,4.9657,0.4392,7.2607c-0.8596,1.8604-2.3875,3.161-4.0881,3.4788c-0.7344,0.1372-1.4587,0.2453-2.1592,0.3496
	c-2.1479,0.3201-4.1762,0.622-4.5398,1.5872C13.4392,26.8587,13.2321,27.0014,13.0012,27.0014z"/>
</svg>
